<svg width="112" height="22" viewBox="0 0 370 73.16072191510882" class="css-1j8o68f"><defs id="SvgjsDefs1036"></defs><g id="SvgjsG1037" featurekey="symbolFeature-0" transform="matrix(0.7142857142857143,0,0,0.7142857142857143,-21.42857142857143,-34.83928680419922)" fill="#83b271"><path xmlns="http://www.w3.org/2000/svg" d="M169,86.1l-68-37.1c-0.6-0.3-1.3-0.3-1.9,0L31,86.1c-0.6,0.4-1,1-1,1.8v7.9c0,1.1,0.9,2,2,2h7.8v51.4c0,1.1,0.9,2,2,2H100    c1.1,0,2-0.9,2-2v-13.6v-0.5c8.3-1,14.8-8.1,14.8-16.7c0-12-5.2-23.2-14.4-31l-1.1-1c-0.7-0.6-1.8-0.6-2.6,0l-1.1,1    c-9.1,7.7-14.4,19-14.4,31c0,4.3,1.6,8.4,4.6,11.6c0.8,0.8,2,0.8,2.8,0.1c0.8-0.8,0.8-2,0.1-2.8c-2.3-2.4-3.5-5.5-3.5-8.8    c0-10.7,4.7-20.8,12.8-27.8c8.1,7,12.8,17.1,12.8,27.8c0,6.4-4.7,11.7-10.8,12.6v-2.4V108c0-1.1-0.9-2-2-2s-2,0.9-2,2v20.6v7v11.6    H43.8V95.7c0-1.1-0.9-2-2-2H34v-4.7l66-36l66,36v4.7h-7.8c-1.1,0-2,0.9-2,2v51.4H116c-1.1,0-2,0.9-2,2s0.9,2,2,2h42.2    c1.1,0,2-0.9,2-2V97.7h7.8c1.1,0,2-0.9,2-2v-7.9C170,87.1,169.6,86.5,169,86.1z"></path></g><g id="SvgjsG1038" featurekey="nameFeature-0" transform="matrix(1.612487011232098,0,0,1.612487011232098,119.09700659708355,-5.930340443012696)" fill="#111111"><path d="M23.48 36.48 c0 1 1.08 1.32 2.68 1.48 l0 2.04 c-4.2 -0.12 -8.28 -0.12 -12.48 0 l0 -2.04 c1.52 -0.04 2.64 -0.48 2.64 -1.48 l0 -9.44 c0 -2.48 0.12 -4.24 -1.68 -4.24 c-2.08 0 -3.96 3.48 -4.32 4.6 l0 9.08 c0 1 1.08 1.44 2.68 1.48 l0 2.04 c-4.16 -0.12 -8.28 -0.12 -12.44 0 l0 -2.04 c1.48 -0.16 2.64 -0.48 2.64 -1.48 l0 -10.12 c0 -1.64 -1.12 -1.88 -2.6 -1.6 l0 -2.04 c4.88 -1.08 7.04 -3.4 8.32 -3.4 c1.12 0 1.6 0.76 1.4 2.08 l-0.36 3 c1.08 -1.64 3.12 -4.8 7.08 -4.8 c2.92 0 6.44 1.28 6.44 7.04 l0 9.84 z M47.08 33.8 c0 1.56 1.12 1.96 2.68 1.56 l0 2.24 c-4.64 1.2 -7.24 2.96 -8.24 2.96 c-1.2 0 -1.72 -0.68 -1.6 -2.04 l0.32 -2.84 c-0.76 2.36 -2.16 4.88 -6.12 4.88 c-3.4 0 -6.16 -1.72 -6.16 -5.16 c0 -4.2 3.4 -6.4 11.96 -8.12 l-0.08 -3.72 c-0.08 -1.92 -0.84 -2.2 -1.52 -2.2 c-4.56 0 -1 6.36 -6.52 6.36 c-1.96 0 -2.84 -1.04 -2.84 -2.6 c0 -3.08 4.28 -5.52 9.88 -5.52 c4.12 0 8.24 0.4 8.24 5.04 l0 9.16 z M36.96 37.44 c2 0 2.84 -3.28 2.96 -4.84 l0 -3.64 c-4.44 0.84 -4.88 4.28 -4.88 5.76 c0 1.56 0.72 2.72 1.92 2.72 z M86.2 36.48 c0 1 1.08 1.32 2.68 1.48 l0 2.04 c-4.16 -0.12 -8.28 -0.12 -12.44 0 l0 -2.04 c1.48 0.04 2.64 -0.48 2.64 -1.48 l0 -8.44 c0 -2.92 -0.08 -5.24 -1.64 -5.24 c-1.76 0 -3.32 3.04 -4 4.56 l0 9.12 c0 1 1.08 1.52 2.68 1.48 l0 2.04 c-4.16 -0.12 -8.28 -0.12 -12.44 0 l0 -2.04 c1.48 0.04 2.64 -0.48 2.64 -1.48 l0 -8.44 c0 -2.92 -0.08 -5.24 -1.6 -5.24 c-1.92 0 -3.36 3.04 -4.04 4.56 l0 9.12 c0 1 1.08 1.52 2.68 1.48 l0 2.04 c-4.16 -0.12 -8.28 -0.12 -12.44 0 l0 -2.04 c1.48 -0.16 2.64 -0.48 2.64 -1.48 l0 -10.12 c0 -1.64 -1.12 -1.88 -2.6 -1.6 l0 -2.04 c4.88 -1.08 7.04 -3.4 8.28 -3.4 c1.16 0 1.64 0.76 1.44 2.08 l-0.36 3.04 c0.84 -1.56 3.12 -4.84 7.76 -4.84 c2.8 0 4.28 1.96 5.04 4.84 c0.84 -1.52 3 -4.84 7.8 -4.84 c3.24 0 5.28 2.36 5.28 6.84 l0 10.04 z M107.83999999999999 35.24 c0.76 0 0.84 0.76 0.28 1.64 c-1.64 2.4 -3.8 3.52 -7.08 3.52 c-5.84 0 -10.76 -3.64 -10.76 -10.6 c0 -6.84 5.24 -10.16 10.04 -10.16 c5.8 0 9.12 4.12 9.12 7.96 c0 2.12 -0.88 3.52 -3.12 3.52 l-9.08 0 c0.16 3.04 0.52 7.24 4.68 7.24 c2.24 0 3.48 -0.88 4.52 -2.52 c0.28 -0.48 0.4 -0.6 0.96 -0.6 l0.44 0 z M102.79999999999998 28.6 c0 -4.28 -0.56 -6.88 -2.56 -6.88 c-2.16 0 -2.96 2.56 -3 6.88 l5.56 0 z M129.99999999999997 34.96 c1.88 2.52 3.16 3.56 5.08 3.76 l-1.64 2.04 c-2.56 0 -5.64 0 -8.48 -3.6 l-4.4 -5.52 l0 4.84 c0 1 1.08 1.44 2.68 1.48 l0 2.04 c-4.16 -0.12 -8.16 -0.2 -12.36 0 l0 -2.04 c1.4 -0.16 2.56 -0.48 2.56 -1.48 l0 -17.08 c0 -1.64 -1.12 -1.92 -2.6 -1.64 l0 -2 c4.88 -1.12 7.04 -3.4 8.36 -3.4 c1.08 0 1.36 0.6 1.36 1.76 l0 14.76 c1.8 -1.32 3.4 -3.28 4.16 -4.64 c0.68 -1.04 -0.36 -1.88 -2.2 -2.04 l0 -2.24 c3.68 0.12 7.32 0.12 11.04 0 l0 2.24 c-1.72 0.16 -2.64 1 -3.96 1.96 l-4.84 3.6 z M145.16 19.64 c4.48 0 10.44 2.68 10.44 10.16 c0 7.52 -5.96 10.6 -10.48 10.6 c-4.48 0 -10.44 -3.08 -10.44 -10.28 c0 -7.8 5.96 -10.48 10.48 -10.48 z M148.04 31.64 c0 -6.2 -1.28 -9.92 -3.36 -9.92 c-1.76 0 -2.4 2.8 -2.4 6.72 c0 6.04 1.28 9.92 3.36 9.92 c1.88 0 2.4 -2.84 2.4 -6.72 z"></path></g></svg>
